<?xml version="1.0" encoding="iso-8859-1"?>
<!-- Generator: Adobe Illustrator 19.0.0, SVG Export Plug-In . SVG Version: 6.00 Build 0)  -->
<svg version="1.1" id="Capa_1" xmlns="http://www.w3.org/2000/svg" xmlns:xlink="http://www.w3.org/1999/xlink" x="0px" y="0px"
	 viewBox="0 0 496.5 496.5" style="enable-background:new 0 0 496.5 496.5;" xml:space="preserve">
<path style="fill:#FF9F5F;" d="M208.136,255.961H31.03c-17.144,0-31.03,13.902-31.03,31.03v177.105
	c0,17.144,13.886,31.03,31.03,31.03h177.105c17.144,0,31.03-13.886,31.03-31.03V286.992
	C239.166,269.863,225.28,255.961,208.136,255.961z"/>
<path style="fill:#ED6262;" d="M465.455,255.961H288.349c-17.129,0-31.03,13.902-31.03,31.03v177.105
	c0,17.144,13.902,31.03,31.03,31.03h177.105c17.144,0,31.03-13.886,31.03-31.03V286.992
	C496.485,269.863,482.599,255.961,465.455,255.961z"/>
<path style="fill:#3AA2EB;" d="M336.803,1.373H159.682c-17.144,0-31.03,13.902-31.03,31.03v177.105
	c0,17.144,13.886,31.03,31.03,31.03h177.105c17.144,0,31.03-13.886,31.03-31.03V32.403C367.833,15.259,353.932,1.373,336.803,1.373z
	"/>
<path style="fill:#2C99DD;" d="M146.603,116.682c9.899,0,17.827-8.052,17.827-17.951V68.43c0-8.27,6.796-15.065,15.065-14.957
	c11.28,0,16.337,6.439,16.337,14.15v36.911c0,9.775,7.246,18.401,17.02,18.975c10.24,0.45,18.866-7.711,18.866-17.951V81.338
	c0-8.285,6.672-15.065,15.065-15.065c12.505,1.427,17.144,7.711,17.144,15.872v21.364c0,9.775,7.246,18.401,16.911,18.975
	c10.349,0.465,18.866-7.711,18.866-17.951v-31.48c0-8.626,7.37-15.065,15.996-14.957c0,0,0.109,0,0.233,0h0.109
	c8.735-0.124,15.996,6.33,15.996,14.957v28.082c0,9.666,7.246,18.292,16.911,18.866c10.349,0.465,18.866-7.711,18.866-17.951
	l0.016-69.725c-0.047-17.098-13.917-30.953-31.03-30.953H159.682c-17.144,0-31.03,13.886-31.03,31.03v66.358
	C128.667,108.629,136.72,116.682,146.603,116.682z"/>
<path style="fill:#E25D5D;" d="M275.27,371.285c9.899,0,17.827-8.052,17.827-17.936v-30.317c0-8.285,6.796-15.065,15.065-14.957
	c11.28,0,16.337,6.439,16.337,14.15v36.911c0,9.775,7.246,18.401,17.02,18.975c10.24,0.45,18.866-7.711,18.866-17.951v-24.235
	c0-8.285,6.672-15.065,15.065-15.065c12.179,1.381,17.144,7.463,17.144,15.872v21.364c0,9.775,7.246,18.401,16.911,18.975
	c10.349,0.465,18.866-7.711,18.866-17.936v-31.48c0-8.626,7.37-15.065,15.996-14.957c0,0,0.109,0,0.233,0h0.109
	c8.735-0.124,15.996,6.33,15.996,14.957v28.082c0,9.666,7.246,18.292,16.911,18.866c10.349,0.45,18.866-7.711,18.866-17.951
	l0.016-69.725c-0.047-17.098-13.917-30.953-31.03-30.953H288.349c-17.129,0-31.03,13.902-31.03,31.03v66.358
	C257.319,363.233,265.371,371.285,275.27,371.285z"/>
<path style="fill:#F49758;" d="M17.951,371.285c9.899,0,17.827-8.052,17.827-17.936v-30.317c0-8.285,6.796-15.065,15.065-14.957
	c11.28,0,16.337,6.439,16.337,14.15v36.911c0,9.775,7.246,18.401,17.02,18.975c10.24,0.45,18.866-7.711,18.866-17.951v-24.235
	c0-8.285,6.672-15.065,15.065-15.065c12.505,1.412,17.144,7.711,17.144,15.872v21.364c0,9.775,7.246,18.401,16.912,18.975
	c10.349,0.465,18.866-7.711,18.866-17.936v-31.48c0-8.626,7.37-15.065,15.996-14.957c0,0,0.109,0,0.233,0h0.109
	c8.735-0.124,15.996,6.33,15.996,14.957v28.082c0,9.666,7.246,18.292,16.912,18.866c10.349,0.45,18.866-7.711,18.866-17.951
	l0.016-69.725c-0.047-17.098-13.917-30.953-31.03-30.953H31.03c-17.144,0-31.03,13.902-31.03,31.03v66.358
	C0,363.233,8.052,371.285,17.951,371.285z"/>
<g>
	<path style="fill:#FFFFFF;" d="M259.258,64.582h-23.242c-0.807,0-1.52,0.481-1.815,1.241l-42.387,108.854
		c-0.233,0.59-0.155,1.257,0.217,1.784c0.357,0.528,0.962,0.853,1.598,0.853h23.304c0.822,0,1.552-0.512,1.831-1.272l8.502-23.459
		h40.82l9.014,23.49c0.295,0.745,1.009,1.241,1.815,1.241h23.909c0.652,0,1.241-0.326,1.614-0.853
		c0.357-0.528,0.434-1.21,0.202-1.815L261.058,65.792C260.763,65.078,260.049,64.582,259.258,64.582z M259.6,130.382h-24.142
		l11.947-32.83L259.6,130.382z"/>
	<path style="fill:#FFFFFF;" d="M149.256,371.751c3.227-2.126,5.942-4.825,8.068-8.13c2.932-4.546,4.437-9.619,4.437-15.096
		c0-5.027-1.21-9.635-3.6-13.715c-2.374-4.018-5.368-7.292-8.937-9.712c-3.568-2.42-7.649-4.034-12.133-4.794
		c-4.313-0.745-10.907-1.117-19.58-1.117H74.007c-1.071,0-1.939,0.869-1.939,1.939v108.854c0,1.071,0.869,1.939,1.939,1.939h37.066
		c14.258-0.109,22.993-0.341,26.702-0.76c6.175-0.683,11.419-2.529,15.639-5.492c4.236-2.994,7.618-7.013,10.054-11.962
		c2.42-4.918,3.646-10.054,3.646-15.282c0-6.703-1.939-12.614-5.756-17.594C158.348,376.902,154.298,373.861,149.256,371.751z
		 M133.849,358.765c-1.862,1.862-4.391,2.948-7.727,3.367c-2.001,0.233-7.292,0.341-15.732,0.341H97.916v-21.287h10.674
		c10.256,0,16.493,0.124,18.541,0.357c3.165,0.372,5.523,1.458,7.059,3.181c1.552,1.753,2.312,4.018,2.312,6.904
		C136.502,354.638,135.633,356.98,133.849,358.765z M97.916,384.473h15.81c12.133,0,16.943,0.791,18.851,1.443
		c2.622,0.915,4.561,2.296,5.911,4.251c1.365,1.955,2.017,4.313,2.017,7.215c0,3.351-0.869,6.035-2.591,7.959
		c-1.784,1.986-4.034,3.196-6.935,3.724c-1.939,0.403-6.873,0.621-14.662,0.621H97.916V384.473z"/>
	<path style="fill:#FFFFFF;" d="M424.882,394.853l-21.302-6.749c-0.512-0.171-1.071-0.109-1.552,0.171
		c-0.465,0.279-0.807,0.714-0.931,1.241c-1.738,7.525-4.577,13.079-8.456,16.493c-3.879,3.413-8.378,5.073-13.793,5.073
		c-7.401,0-13.219-2.638-17.827-8.083c-4.624-5.446-6.966-14.91-6.966-28.129c0-12.443,2.374-21.473,7.059-26.857
		c4.686-5.399,10.628-8.021,18.168-8.021c5.446,0,9.914,1.458,13.669,4.468c3.724,2.979,6.191,7.106,7.385,12.288
		c0.124,0.496,0.434,0.931,0.869,1.21c0.434,0.248,0.962,0.357,1.474,0.233l21.752-5.198c0.512-0.124,0.962-0.434,1.226-0.9
		c0.264-0.45,0.326-0.993,0.186-1.52c-2.56-9.014-6.485-16.058-11.667-20.93c-8.657-8.177-20.015-12.335-33.776-12.335
		c-15.717,0-28.61,5.26-38.307,15.655c-9.666,10.349-14.553,24.995-14.553,43.535c0,17.548,4.872,31.62,14.491,41.829
		c9.65,10.224,22.109,15.407,37.05,15.407c12.071,0,22.187-3.041,30.084-9.045c7.897-5.989,13.622-15.251,16.989-27.508
		C426.449,396.218,425.875,395.179,424.882,394.853z"/>
</g>
<g>
</g>
<g>
</g>
<g>
</g>
<g>
</g>
<g>
</g>
<g>
</g>
<g>
</g>
<g>
</g>
<g>
</g>
<g>
</g>
<g>
</g>
<g>
</g>
<g>
</g>
<g>
</g>
<g>
</g>
</svg>
